<svg version="1.2" xmlns="http://www.w3.org/2000/svg" viewBox="0 0 128 125" width="128" height="125"><style>tspan{white-space:pre}</style><path fill-rule="evenodd" d="m71.8 106.6c-4.4 3.6-8.8 7.2-13.3 10.6-2.9 2.3-4.4 5.5-8.1 3-9.2-6.1-18.2-12.5-26-20.3q-1.5-1.4-3-2.8-1.4-1.4-2.9-2.8-1.6-1.4-3.1-2.7-1.5-1.3-3.1-2.6c-2.9-2.4-6.5-4.7-8.2-8.1q-0.1-0.2-0.1-0.3 0-0.1 0-0.3 0-0.1 0.1-0.2 0-0.2 0.1-0.3 0 0 0.1-0.1 0-0.1 0-0.1 0-0.1 0.1-0.1 0-0.1 0.1-0.1 0.1-0.2 0.3-0.4 0.1-0.2 0.3-0.4 0.1-0.2 0.2-0.4 0.2-0.2 0.3-0.4 0-0.1 0-0.1c0-1 0.3-2 0.4-3.2q0-0.1 0-0.1 0 0 0 0 0-0.1 0-0.1 0 0 0 0c-1.1-1.8-1.1-3.6 1.8-5.2q2-1.2 3.9-2.4 2-1.3 3.8-2.7 1.9-1.3 3.7-2.8 1.9-1.4 3.6-2.9 1.4-1.3 2.9-2.5 1.4-1.3 2.9-2.5 1.5-1.1 3.1-2.2 1.5-1.2 3.1-2.2c1.7-1.1 5.2-3.5 7.5-2.5 1.6-3.4 5.8-5.2 8.9-7.2-0.8-2.5 1.4-4.5 3.6-5.5q0 0 0 0 0 0 0.1 0 0 0 0 0 0.1 0 0.1 0 0-0.1 0.1-0.1 0 0 0 0 0 0 0.1 0 0 0 0 0 0.2-0.1 0.4-0.1 0.1-0.1 0.3-0.1 0.1-0.1 0.3-0.1 0.2 0 0.3 0v-0.1q0.3-1.4 0.6-2.8 0.3-1.3 0.8-2.6 0.4-1.4 1-2.6 0.6-1.3 1.3-2.5 0-0.1 0.1-0.1 0-0.1 0-0.1 0.1-0.1 0.1-0.1 0.1 0 0.1-0.1 0.1 0 0.1 0 0.1-0.1 0.1-0.1 0.1-0.1 0.1-0.1 0.1 0 0.1 0 0.7-0.2 1.3-0.4 0.7-0.1 1.4-0.2 0.7 0 1.4 0 0.6 0 1.3 0.1 0.1 0 0.1 0 0.1 0 0.1 0 0.1 0 0.2 0.1 0 0 0.1 0 0.6-1.3 1.3-2.6 0.7-1.3 1.5-2.6 0.8-1.2 1.6-2.5 0.9-1.2 1.8-2.4 0 0 0.1 0 0-0.1 0-0.1 0 0 0-0.1 0 0 0 0 0-0.1 0.1-0.1c0.8-1.5 1.8-2.9 2.7-4.4q0.1 0 0.1-0.1 0.1-0.1 0.2-0.2 0.1-0.2 0.2-0.2 0.2-0.1 0.4-0.1 0.1 0 0.3 0 0.4 0.2 0.8 0.4 0.5 0.1 0.9 0.4 0.4 0.2 0.8 0.4 0.4 0.2 0.7 0.5 0.2 0.1 0.3 0.2 0.1 0.2 0.1 0.3 0.1 0.2 0.1 0.4 0 0.1-0.1 0.3 0 0.1 0 0.2 0 0.1-0.1 0.1 0 0.1 0 0.2-0.1 0.1-0.1 0.2c-1.4 1.5-1.6 3.6-2.6 5.3-1.3 2.1-2.7 4.1-3.9 6.2q0.8 0.1 1.7 0.4 0.8 0.3 1.4 0.8 0.7 0.6 1.3 1.3 0.5 0.6 0.8 1.4c2.4 1.1 4.1 1.3 4.7 4 3.3 1.2 5.9 3.3 8.9 5.1 3.5 2.1 6.7 4.5 10 6.7 3.7 2.4 7.6 4.6 11.2 7.2 2 1.5 3.9 3.1 6 4.5q0.5 0.2 0.9 0.5 0.5 0.3 0.9 0.6 0.4 0.3 0.8 0.6 0.4 0.4 0.8 0.8 0.1 0.1 0.2 0.3 0.1 0.1 0.2 0.3 0.1 0.1 0.1 0.3 0.1 0.2 0.1 0.4c0.1 1.1-0.8 1.8-1.4 2.6q-0.3 0.3-0.5 0.7-0.2 0.3-0.4 0.6-0.2 0.4-0.3 0.8-0.1 0.3-0.2 0.7-0.4 1.1-0.8 2-0.5 1-1 2-0.6 0.9-1.2 1.8-0.7 0.9-1.4 1.8-0.5 0.7-1.2 1.5-0.6 0.7-1.3 1.3-0.7 0.7-1.5 1.3-0.8 0.5-1.6 1.1 0 0.1 0 0.2 0 0.1-0.1 0.2-0.1 0.1-0.1 0.2-0.1 0-0.2 0.1 0 0-0.1 0.1 0 0 0 0 0 0-0.1 0.1 0 0 0 0c-6.6 4.7-12.7 10.3-19.5 14.6q-0.1 0-0.2 0.1-0.1 0-0.2 0-0.2 0-0.3 0-0.1 0-0.2-0.1c-0.7 1.8-2.5 3.1-4.3 4.8-4.5 4.1-9.3 7.8-14.1 11.5zm49.4-50.7q0-0.1-0.1-0.1-0.1-0.1-0.2-0.2-0.1-0.1-0.1-0.2-0.1-0.1-0.2-0.1-0.9 0.6-1.8 1.3 0.6 0.3 1.2 0.7 0.1-0.2 0.3-0.4 0.1-0.1 0.3-0.3 0.1-0.2 0.3-0.3 0.2-0.2 0.3-0.4zm-1.4 3.6q-0.1-0.1-0.1-0.1 0 0 0 0-0.1 0-0.1-0.1 0 0 0 0 0 0-0.1 0-0.3-0.2-0.6-0.5-0.3-0.2-0.7-0.4-0.3-0.2-0.6-0.4-0.4-0.1-0.7-0.3-0.1 0-0.2-0.1-0.1 0-0.1 0-0.1-0.1-0.2-0.1 0-0.1-0.1-0.1c-8.3-4.3-18.1-5.2-26.3-9.9q0 0 0 0-0.1 0-0.1 0-0.1 0-0.1-0.1-0.1 0-0.1 0-0.1-0.1-0.1-0.1c-1.7-1.7-3.2-3.5-4.8-5.3q-0.4-0.3-1-0.7-0.2-0.2-0.5-0.4-0.2-0.3-0.4-0.5-0.3-0.2-0.4-0.5-0.2-0.3-0.4-0.6c-0.2-0.6-0.3-1-0.2-1 0.1-0.1 0.4 0.2 0.8 0.6 0.4 0.4 0.9 0.9 1.5 1.3-0.3-2.6-1.5-5-1.8-7.7-0.1-1.6 0.1-4.3-2.1-4.8q-0.2-0.1-0.4-0.2-0.3 0-0.5-0.1-0.2 0-0.4-0.1-0.2-0.1-0.4-0.2 0.1 0.4 0.1 0.8c0.3 2.4 0 4.3-0.3 4.3-0.3 0-0.5-1.9-0.7-4.1q-0.1-1-0.3-1.8 0 0 0 0 0 0 0-0.1 0 0 0 0 0 0 0 0-0.1-0.3-0.1-0.5c-0.8-1.7-2.5-2.4-4.4-2.4q-0.2 0.3-0.5 0.7-0.2 0.3-0.4 0.7-0.2 0.3-0.4 0.7-0.2 0.3-0.3 0.7c-1.8 3.1-3.3 6.4-5.8 9q-0.1 0.1-0.2 0.1-0.1 0.1-0.2 0.1-0.1 0.1-0.2 0.1-0.1 0-0.2 0c0 0 0-0.1 0-0.1h-0.1c-0.3 0-0.7 0.1-1-0.1 0 0 0 0-0.1 0q-0.9-0.2-1.9-0.3-1-0.1-2 0-1 0-1.9 0.1-1 0.1-2 0.4 0 0 0 0c-1.5 0.7-4.4 2.9-1.8 4.2q0.6 0.2 1.2 0.4 0.6 0.1 1.2 0.2 0.7 0.1 1.3 0 0.6 0 1.2 0 0.1-0.1 0.2 0 0.1 0 0.1 0 0.1 0 0.2 0.1 0.1 0 0.1 0.1 0.1 0 0.2 0 0 0 0.1 0.1 0 0 0.1 0.1 0 0 0.1 0.1c1.7 2.2 3 4.7 5.2 6.5q0.8 0.7 1.7 1.4 1 0.7 1.9 1.3 1 0.5 2 1.1 1 0.5 2 0.9 0.1 0 0.2 0.1 0 0 0.1 0 0 0.1 0.1 0.1 0 0.1 0.1 0.1 0.5 0.2 1.1 0.4 0.7 0.2 1.3 0.4 0.2 0.1 0.3 0.1 0.2 0 0.3 0.1 0.2 0 0.3 0 0.1 0 0.3-0.1 0.2 0 0.3 0 0.2 0 0.4-0.1 0.1 0 0.3 0 0.2 0 0.3 0 0.1 0 0.2 0 0.1 0 0.2 0 0.1 0 0.1 0 0.1 0 0.2 0.1h0.1 0.1l0.2 0.1q0 0 0 0 0.1 0 0.1 0.1 0.1 0 0.1 0 0 0 0.1 0 0.1 0.1 0.2 0.2 0.1 0.1 0.2 0.1 0.1 0.1 0.2 0.2 0.1 0.1 0.2 0.2 0.2 0.1 0.3 0.2 0.1 0.1 0.3 0.2 0.1 0.1 0.3 0.2 0.1 0 0.3 0.1c0.3 0.1 0.5 0.2 0.5 0.2q0 0.2-0.6 0.2-0.2 0-0.4 0-0.2-0.1-0.4-0.1-0.2-0.1-0.3-0.2-0.2-0.1-0.4-0.2-0.1-0.1-0.2-0.1-0.1-0.1-0.2-0.2-0.1 0-0.2-0.1-0.1 0-0.2-0.1-0.1 0-0.1 0 0 0 0 0-0.1 0-0.1 0 0 0-0.1-0.1h-0.1-0.1v-0.2-0.1c-0.1 0-0.2 0.1-0.2 0.1-0.1 0-0.2 0.1-0.3 0.1-0.3 0-0.7 0.2-1.2 0.2q-0.2 0.1-0.4 0.1-0.2 0-0.4 0-0.2 0-0.4-0.1-0.2 0-0.4-0.1-0.6-0.2-1.3-0.4c1.5 2.2 6 3.1 8.1 4.4q0.9 0.6 1.8 1.2 1 0.7 1.9 1.4 0.9 0.6 1.8 1.3 0.8 0.7 1.7 1.5c5.6 4.3 11.8 7.5 18.2 10.5q0 0 0 0 0.1-0.1 0.1-0.1 0 0 0 0 0 0 0.1 0c3.3 0 6.3-3.5 8.1-6 1.7-2.4 3.8-5.3 4-8.3zm-2.9-3.9q0.9-0.7 1.9-1.4-0.7-0.4-1.3-0.8-0.6-0.4-1.1-0.8-0.6-0.5-1.2-0.9-0.6-0.5-1.1-1c-3.6-2.7-7.5-4.9-11.2-7.3-3.4-2.3-6.7-4.7-10.2-6.8-2.8-1.7-5.4-3.9-8.4-5.1 0.6 3 1.6 6 1.9 9.1 1.5 1.8 3 3.6 4.6 5.3q0.1 0 0.1 0 0 0 0 0 0 0 0 0 0 0 0 0c8.2 4.6 17.7 5.6 26 9.7zm-9.6 20.2q-0.1 0-0.1 0 0 0-0.1 0 0 0-0.1-0.1 0 0 0 0-0.2-0.1-0.3-0.1c-3 1.5-5.5 3.6-8.2 5.5q-1.1 0.7-2.1 1.5-1.1 0.7-2.1 1.5-1 0.9-1.9 1.7-0.9 0.9-1.8 1.8 0 0.1 0 0.2 0 0.1 0 0.2 0 0 0 0.1 0 0.1 0 0.2c5.8-3.7 11.1-8.3 16.7-12.5zm-2.7-1.2q-0.7-0.4-1.4-0.7c-2 2-4.4 3.1-6.6 4.8-2.5 1.8-4.9 3.9-7.5 5.8q0 0 0 0 0 0.1 0 0.1 0 0 0 0.1-0.1 0-0.1 0 0.1 0.2 0.1 0.3 0.1 0.2 0.1 0.3 0.1 0.2 0.1 0.3 0.1 0.1 0.1 0.3 0 0 0.1 0 0 0 0 0 0 0 0 0 0 0 0.1 0 0.8-0.8 1.6-1.6 0.9-0.8 1.8-1.5 0.9-0.7 1.8-1.4 0.9-0.7 1.9-1.4 1-0.7 1.9-1.4 1-0.7 2-1.4 1-0.7 2-1.3 1-0.7 2-1.3zm-9.6 2.9c2.1-1.6 4.5-2.7 6.4-4.5q-2-1-3.9-2.1-2-1.1-3.8-2.3-1.9-1.2-3.7-2.5-1.8-1.3-3.6-2.6-1.1-1-2.3-1.9-1.2-0.8-2.5-1.6-1.2-0.8-2.5-1.4-1.4-0.7-2.7-1.2c-2.1-0.8-3.7-1.7-4.5-3.8q-0.8-0.3-1.6-0.7-0.8-0.4-1.6-0.8-0.8-0.5-1.5-1-0.8-0.4-1.5-1-0.5 0.6-1.1 1-0.6 0.4-1.3 0.6-0.8 0.2-1.5 0.2-0.7 0-1.4-0.3c-1.9-0.5-2.8-2-2.2-3.6q-0.5 0.4-1 0.9-0.5 0.4-1.1 0.7-0.5 0.4-1.1 0.7-0.6 0.3-1.2 0.5-0.2 0.1-0.4 0.1-0.2-0.1-0.3-0.2-0.2-0.1-0.3-0.3-0.1-0.2-0.1-0.4-0.1 0-0.1-0.1 0-0.1 0-0.2 0-0.1 0-0.1 0-0.1 0-0.2 0.2-1 0.4-1.9 0.2-1 0.5-1.9 0.3-0.9 0.6-1.9 0.4-0.9 0.8-1.8-0.4 0-0.7-0.1-0.4-0.1-0.7-0.3-0.4-0.1-0.7-0.3-0.3-0.2-0.6-0.4c-2.7 1.8-7 3.5-8.3 6.6 7.4 6.5 15.1 12.5 22.7 18.7 3.7 3 7.4 6 11.1 9.1 3.3 2.8 6.8 5.1 10.2 7.8 2.4-1.8 4.7-3.7 7.1-5.5zm-7.2 10.4q0-0.2 0-0.3 0-0.2 0-0.4 0-0.2-0.1-0.3 0-0.2-0.1-0.3c-5.3 6.2-13 10.6-19.2 15.9q-1.3 1.2-2.6 2.4-1.3 1.1-2.7 2.2-1.4 1.1-2.8 2.2-1.4 1.1-2.8 2.1-0.3 0.2-0.6 0.5-0.3 0.2-0.7 0.4-0.3 0.2-0.6 0.4-0.4 0.2-0.7 0.4-0.3 0.8-0.6 1.6 0.7-0.6 1.3-1.1 0.7-0.6 1.4-1.1 0.7-0.5 1.4-1 0.7-0.5 1.5-0.9c3.4-2.3 6.5-4.8 9.7-7.3 6.3-4.9 12.5-9.9 18.2-15.4zm-0.1 2.9l-0.1-0.1c-5.6 5.2-11.5 9.9-17.5 14.7-5.4 4.2-12 7.6-16.6 12.7q-0.1 0.1-0.2 0.1-0.1 0.1-0.2 0.1-0.1 0.1-0.2 0.1-0.1 0-0.3 0-0.1 0-0.2-0.1 0 0-0.1 0-0.1 0-0.2-0.1-0.1 0-0.2-0.1-0.1-0.1-0.1-0.2-0.1-0.1-0.1-0.2-0.1-0.1-0.1-0.2-0.1-0.1-0.1-0.2c-4.7-3.6-9.7-6.9-14.7-10.1-2.1-1.3-3.3-3.1-5.1-4.7-2.2-2-4.5-4-6.8-6-4.5-3.8-8.4-8.2-12.8-12-1.5-1.3-4.4-2.8-5.7-4.5q-0.1 0.2-0.4 0.5c1.8 3 5.1 4.9 7.6 7.1 3.5 3.1 7.1 6 10.5 9.3q1.3 1.4 2.7 2.7 1.3 1.3 2.7 2.6 1.4 1.3 2.8 2.5 1.5 1.3 2.9 2.5c3.8 3 7.8 5.4 11.8 8.1 1.8 1.2 3.5 3.3 5.6 3.8 1.3 0.4 3.2-2.1 4.2-2.9 3.9-3 7.8-6.2 11.8-9.4 4.1-3.3 8.4-6.5 12.4-9.9q2.7-2.3 5.2-4.8c0.6-0.5 1.1-0.9 1.5-1.3zm-7.7 0q1-0.7 1.8-1.4 0.9-0.8 1.8-1.6 0.8-0.7 1.7-1.6 0.8-0.8 1.5-1.6c-3.7-3-7.7-5.7-11.4-8.8q-5.5-4.6-11.1-9.1c-7.3-5.9-14.7-11.8-21.8-18q-0.1 0-0.2 0-0.1 0-0.2 0-0.1-0.1-0.1-0.1-0.1-0.1-0.2-0.2c-1.6-1.8-7.8 3.3-9.1 4.2-3.5 2.6-6.7 5.4-10 8.3q-1.4 1.3-3 2.5-1.5 1.2-3.1 2.4-1.6 1.1-3.3 2.2-1.6 1-3.3 2c-1.3 0.8-3.8 2-2.1 3.7q0.3 0.3 0.6 0.7 0.3 0.3 0.7 0.6 0.3 0.3 0.6 0.6 0.4 0.3 0.7 0.6c2.2 1.8 4.2 3.8 6.4 5.7 3.2 2.6 6.7 5 9.8 7.8 2.6 2.4 5.1 5 7.7 7.4q1.1 1 2.3 2 1.1 1 2.3 2 1.2 1 2.4 1.9 1.2 1 2.4 1.9c2.8 1.9 5.6 4.4 8.6 5.9 2.1 1.1 3.4-0.6 5.1-1.7q0.7-0.5 1.4-1 0.7-0.5 1.4-1 0.7-0.5 1.3-1 0.7-0.6 1.3-1.1c2.6-2.4 5.2-4.7 7.9-6.8 3.2-2.4 6.2-5 9.2-7.4zm-1.4-81.6q-0.2-0.2-0.3-0.3-0.2-0.1-0.4-0.1-0.1-0.1-0.3-0.2-0.2-0.1-0.4-0.2-1.1 1.7-2.1 3.4 0.2 0 0.4 0.1 0.2 0.1 0.3 0.2 0.2 0.1 0.4 0.1 0.2 0.1 0.4 0.2 0.2-0.4 0.4-0.8 0.2-0.5 0.5-0.9 0.2-0.4 0.5-0.8 0.3-0.4 0.6-0.7zm-2.6 5.1q-0.2-0.1-0.4-0.3-0.3-0.1-0.5-0.2-0.3-0.1-0.6-0.2-0.2-0.1-0.5-0.2c-4.7 6-7.2 13.3-11.2 19.8q0.6 0.1 1.2 0.2 0.1 0 0.1 0 0.1 0 0.1 0.1 0.1 0 0.1 0 0 0 0.1 0c2.5-2.7 4-6.2 5.8-9.4 1.9-3.3 3.9-6.5 5.8-9.8zm-10.1 9.1q-0.5 0-1 0-0.6 0-1.1 0-0.5 0.1-1 0.2-0.6 0.1-1.1 0.2-0.6 1.1-1.1 2.2-0.5 1.1-0.9 2.3-0.4 1.1-0.7 2.3-0.3 1.2-0.5 2.4 0.3 0 0.6 0 0.2 0 0.5 0 0.3 0 0.6 0 0.3 0 0.5 0 0 0 0 0 0.7-1.1 1.4-2.3-0.2-0.1-0.4-0.3-0.2-0.1-0.3-0.3-0.2-0.2-0.3-0.4-0.2-0.2-0.3-0.4c-0.2-0.5-0.2-0.8-0.1-0.8 0.1-0.1 0.3 0.1 0.6 0.5q0.1 0.1 0.2 0.2 0.1 0.1 0.3 0.2 0.1 0.1 0.2 0.1 0.1 0.1 0.2 0.2 0.1-0.1 0.2-0.3 0.1-0.2 0.2-0.3 0-0.2 0.2-0.3 0.1-0.1 0.2-0.3 0 0 0 0 0.1-0.1 0.1-0.1 0-0.1 0.1-0.1 0 0 0 0-0.2-0.2-0.3-0.5-0.2-0.2-0.3-0.4-0.2-0.2-0.3-0.5-0.1-0.2-0.2-0.5c-0.2-0.7-0.1-1.1 0-1.1 0.2 0 0.3 0.4 0.6 0.8q0.1 0.2 0.3 0.4 0.1 0.2 0.3 0.3 0.1 0.2 0.3 0.4 0.1 0.1 0.3 0.3 1-2 2-4.1zm-1.7 25.5q-0.2-0.1-0.4-0.3-0.1-0.1-0.3-0.3-0.2-0.2-0.4-0.4-0.1-0.1-0.3-0.3-0.3 0.2-0.6 0.4-0.3 0.1-0.7 0.3-0.3 0.1-0.7 0.1-0.4 0.1-0.7 0c-0.4 0.8 0 1.3 1.1 1.5q0.4 0.1 0.8 0.1 0.4-0.1 0.8-0.2 0.4-0.1 0.8-0.3 0.3-0.2 0.6-0.6zm-5.2-2.8q0.3 0.2 0.6 0.3 0.3 0.1 0.7 0.1 0.3 0 0.6-0.1 0.4-0.1 0.7-0.3c-0.7-0.8-1.3-1.6-1.9-2.5-0.6 0.8-1.3 2-0.7 2.5zm-0.5-4q-0.8 0-1.6 0-0.4 0.7-0.7 1.5-0.3 0.8-0.5 1.5-0.3 0.8-0.5 1.6-0.3 0.8-0.5 1.6 0.4-0.2 0.7-0.5 0.3-0.2 0.6-0.4 0.2-0.2 0.5-0.5 0.3-0.2 0.6-0.5-0.1-0.6-0.1-1.2 0.1-0.6 0.3-1.1 0.1-0.6 0.5-1.1 0.3-0.5 0.7-0.9zm-6.4 73.2c0.3-0.7 0.5-1.4 0.8-2.2q-0.2-0.1-0.4-0.1-0.2-0.1-0.4-0.2-0.2-0.1-0.3-0.2-0.2-0.1-0.4-0.2-2.8-1.7-5.5-3.6-2.7-1.8-5.3-3.9-2.6-2-5.1-4.2-2.4-2.2-4.8-4.5c-6.3-6.2-13.3-11.7-20.1-17.4-0.9-0.8-2-1.7-3-2.7q-0.1 0.4-0.1 0.8c-0.3 1.9 2.2 3.2 3.4 4.1q0.8 0.6 1.5 1.3 0.7 0.6 1.4 1.2 0.8 0.7 1.4 1.3 0.7 0.7 1.4 1.4 1.4 1.3 2.7 2.7 1.4 1.3 2.9 2.6 1.4 1.3 2.8 2.6 1.5 1.3 3 2.5c3.9 3.4 7.2 7.5 11.7 10.1q1.6 1 3.2 2.1 1.6 1 3.1 2.1 1.6 1 3.1 2.2 1.5 1.1 3 2.2z"/><path  d="m78.5 83.8c0.2 0.2-0.3 0.8-1.1 1.3-0.8 0.4-1.6 0.6-1.7 0.3-0.2-0.2 0.4-0.8 1.1-1.3 0.8-0.4 1.6-0.6 1.7-0.3z"/><path  d="m74 86.4c0.2 0.2-0.3 0.9-1.1 1.4-0.7 0.5-1.4 0.9-1.6 0.7-0.2-0.2 0.1-0.9 1-1.5 0.8-0.6 1.6-0.9 1.7-0.6z"/><path  d="m72.8 78.7c0.1 0.3-0.1 0.6-0.6 0.8-0.5 0.2-0.9 0.1-1-0.2-0.1-0.2 0.1-0.6 0.6-0.8 0.5-0.2 0.9-0.1 1 0.2z"/><path  d="m70.3 80.1c0.2 0.2-0.3 0.8-1.1 1.2-0.7 0.4-1.5 0.6-1.6 0.3-0.2-0.2 0.3-0.8 1-1.2 0.8-0.5 1.6-0.6 1.7-0.3z"/><path  d="m69.3 90.6c0.1 0.3-0.3 0.9-0.9 1.4-0.7 0.7-1.3 1-1.6 0.8-0.2-0.2 0.2-0.9 0.8-1.5 0.8-0.6 1.5-0.9 1.7-0.7z"/><path  d="m65.5 84.2c-0.4 0.5-1 0.7-1.2 0.5-0.2-0.2 0-0.8 0.5-1.2 0.4-0.5 1-0.7 1.2-0.5 0.2 0.2 0 0.8-0.5 1.2z"/><path  d="m65.8 72.5c0.1 0.3-0.3 0.6-0.9 0.9-0.4 0.3-1.1 0.5-1.2 0.2-0.2-0.2 0-0.7 0.7-1.1 0.7-0.4 1.3-0.3 1.4 0z"/><path  d="m64.5 94.9c0.2 0.2 0 0.8-0.6 1.3-0.5 0.5-1.1 0.7-1.3 0.5-0.2-0.2 0.1-0.8 0.6-1.3 0.5-0.5 1.1-0.7 1.3-0.5z"/><path  d="m62.9 86.3c0.3 0.2-0.2 1-0.9 1.9-0.9 0.9-1.7 1.2-1.9 1-0.2-0.2 0.4-1 1.1-1.7 0.7-0.9 1.5-1.4 1.7-1.2z"/><path  d="m61.3 74.9c0.1 0.2-0.7 1.2-1.8 2.2-1.2 1.1-2.3 1.6-2.5 1.4-0.2-0.3 0.7-1.2 1.8-2.2 1.1-1 2.3-1.6 2.5-1.4z"/><path  d="m60.7 66.9c0.1 0.3-0.4 0.7-1 0.9-0.5 0.2-1.1 0.5-1.3 0.2-0.1-0.2 0.1-0.8 0.9-1.2 0.7-0.2 1.3-0.2 1.4 0.1z"/><path  d="m60.2 98.9c0.2 0.2-0.1 1-0.8 1.7-0.7 0.7-1.4 0.9-1.6 0.7-0.2-0.3 0.3-0.9 0.9-1.5 0.6-0.6 1.3-1.1 1.5-0.9z"/><path  d="m56.8 91.7c0.2 0.2 0 0.7-0.5 1.2-0.4 0.4-1 0.6-1.2 0.4-0.2-0.3 0-0.8 0.5-1.2 0.5-0.5 1-0.6 1.2-0.4z"/><path  d="m56.7 69.1c0.2 0.2-0.1 0.8-0.7 1.2-0.6 0.4-1.2 0.6-1.4 0.3-0.2-0.2 0.2-0.7 0.8-1.2 0.5-0.4 1.1-0.5 1.3-0.3z"/><path  d="m55.3 80.2c0.2 0.2-0.3 0.9-1 1.5-0.7 0.6-1.5 1-1.7 0.8-0.2-0.2 0.2-1 1-1.6 0.8-0.7 1.6-1 1.7-0.7z"/><path  d="m55.1 103.4c0.2 0.2-0.2 0.9-1 1.5q-0.2 0.1-0.3 0.1-0.2 0.1-0.4 0.2-0.1 0-0.3 0.1-0.2 0-0.3 0c-0.4 0-0.6-0.1-0.6-0.2-0.1-0.2 0.1-0.4 0.4-0.5q0.1-0.1 0.2-0.2 0.1-0.1 0.2-0.1 0.1-0.1 0.3-0.2 0.1-0.1 0.2-0.1c0.7-0.5 1.4-0.9 1.6-0.6z"/><path  d="m53.9 62.7c0.2 0.3 0 0.7-0.4 0.9-0.4 0.3-0.9 0.3-1 0.1-0.2-0.3 0-0.7 0.4-1 0.4-0.2 0.8-0.2 1 0z"/><path  d="m53.7 71.3c0.1 0.3-0.2 0.8-0.8 1.3-0.6 0.4-1.2 0.6-1.4 0.4-0.2-0.2 0.2-0.8 0.7-1.3 0.6-0.4 1.3-0.6 1.5-0.4z"/><path  d="m53.2 43.2c0.2 0.3 0 0.7-0.5 1.1-0.5 0.2-0.9 0.2-1.1 0-0.2-0.3 0.1-0.7 0.5-1 0.4-0.2 0.9-0.3 1.1-0.1z"/><path  d="m53 94.9c0.2 0.2-0.2 0.9-0.9 1.5-0.7 0.5-1.4 0.7-1.6 0.4-0.2-0.2 0.3-0.8 1-1.3 0.6-0.5 1.3-0.8 1.5-0.6z"/><path  d="m51.6 64.2c0.2 0.3-0.1 0.7-0.6 1-0.4 0.4-1 0.4-1.1 0.2-0.2-0.2 0.1-0.7 0.5-1 0.5-0.4 1-0.4 1.2-0.2z"/><path  d="m50.7 58c0 0.3-0.6 0.7-1.3 1-0.2 0.2-0.6 0.3-0.8 0.5-0.3 0.1-0.5 0.2-0.6 0q-0.2-0.1 0-0.5 0.1-0.2 0.2-0.3 0.1-0.1 0.2-0.2 0.1-0.2 0.3-0.3 0.1 0 0.2-0.1c0.9-0.5 1.7-0.4 1.8-0.1z"/><path  d="m50.4 84.1c0.2 0.2 0.1 0.8-0.3 1.2-0.5 0.5-1 0.7-1.2 0.5-0.2-0.2 0-0.7 0.4-1.2 0.4-0.4 0.9-0.6 1.1-0.5z"/><path  d="m50.3 45.5c0.2 0.3 0 0.8-0.4 1.2-0.5 0.4-1 0.6-1.2 0.4-0.2-0.3 0-0.8 0.4-1.2 0.5-0.4 1-0.6 1.2-0.4z"/><path  d="m50.2 74.2c0.1 0.2-0.3 0.8-0.9 1.4-0.7 0.5-1.4 0.7-1.6 0.5-0.2-0.3 0.2-0.9 0.9-1.4 0.7-0.5 1.4-0.8 1.6-0.5z"/><path  d="m48.8 66.3c0.2 0.3 0.1 0.7-0.2 0.9-0.3 0.4-0.7 0.5-1 0.3-0.2-0.2-0.1-0.7 0.2-1 0.3-0.3 0.7-0.4 1-0.2z"/><path  d="m48.2 98.5c0.1 0.2-0.3 0.9-1.2 1.5q-0.1 0.1-0.3 0.2-0.1 0.1-0.3 0.2-0.2 0-0.3 0.1-0.2 0-0.4 0c-0.3 0.1-0.5 0-0.6-0.2 0-0.1 0.2-0.3 0.4-0.5q0.4-0.3 1-0.6c0.7-0.6 1.5-0.9 1.7-0.7z"/><path  d="m46.9 87.7c0.3 0.2 0 0.8-0.5 1.3-0.5 0.4-1.1 0.6-1.3 0.4-0.2-0.2 0.1-0.8 0.6-1.2 0.5-0.5 1-0.7 1.2-0.5z"/><path  d="m46.4 77.5c0.2 0.2-0.1 0.8-0.7 1.3-0.6 0.6-1.2 0.8-1.4 0.6-0.2-0.2 0.1-0.8 0.7-1.3 0.6-0.6 1.2-0.8 1.4-0.6z"/><path  d="m46.2 68.6c0.2 0.3-0.1 0.8-0.6 1.1-0.5 0.4-1 0.4-1.2 0.2-0.2-0.2 0.1-0.7 0.6-1.1 0.5-0.3 1.1-0.4 1.2-0.2z"/><path  d="m45.7 60.7c0.2 0.2-0.2 0.8-0.9 1.3-0.7 0.4-1.3 0.6-1.5 0.4-0.2-0.3 0.2-0.8 0.9-1.3 0.7-0.5 1.4-0.7 1.5-0.4z"/><path  d="m44.3 55c0.1 0.2-0.1 0.6-0.6 0.8-0.4 0.2-0.8 0.1-1-0.1-0.1-0.3 0.2-0.7 0.6-0.9 0.5-0.2 0.9-0.1 1 0.2z"/><path  d="m43.7 90.6c0.2 0.1-0.1 0.8-0.7 1.4-0.6 0.4-1.3 0.6-1.4 0.4-0.2-0.3 0.1-0.8 0.8-1.3 0.5-0.5 1.1-0.7 1.3-0.5z"/><path  d="m43.1 70.9c0.2 0.3-0.1 0.7-0.6 1.1-0.5 0.4-1 0.5-1.2 0.3-0.2-0.2 0.1-0.7 0.6-1.1 0.4-0.4 1-0.5 1.2-0.3z"/><path  d="m42.2 81.4c0.2 0.2-0.1 0.8-0.8 1.4-0.6 0.5-1.2 0.7-1.4 0.5-0.2-0.3 0.1-0.8 0.8-1.4 0.6-0.5 1.2-0.7 1.4-0.5z"/><path  d="m42 63.3c0.2 0.3 0 0.8-0.6 1.3-0.5 0.5-1.1 0.7-1.3 0.5-0.2-0.2 0.1-0.8 0.6-1.3 0.6-0.5 1.1-0.7 1.3-0.5z"/><path  d="m41.9 56.2c0.2 0.3 0 0.8-0.5 1.2-0.5 0.4-1.1 0.5-1.3 0.3-0.2-0.3 0.1-0.8 0.6-1.2 0.5-0.4 1.1-0.5 1.2-0.3z"/><path  d="m41.7 50.9c0.1 0.3-0.4 0.9-1.2 1.3-0.7 0.5-1.5 0.7-1.6 0.5-0.2-0.3 0.3-0.9 1.1-1.4 0.8-0.5 1.6-0.6 1.7-0.4z"/><path  d="m40.1 72.9c0.1 0.1-0.1 0.5-0.5 0.9q-0.2 0.3-0.5 0.5-0.2 0.2-0.4 0.5-0.2 0.2-0.4 0.4-0.3 0.2-0.5 0.4-0.3 0.2-0.5 0.4-0.3 0.2-0.5 0.4-0.3 0.2-0.6 0.3-0.2 0.2-0.5 0.4c-0.6 0.2-1 0.3-1.1 0.2-0.1-0.1 0.2-0.5 0.7-0.9 0.4-0.4 1.1-1 1.8-1.6q0.2-0.2 0.5-0.4 0.2-0.2 0.5-0.4 0.2-0.2 0.5-0.4 0.2-0.2 0.5-0.3c0.5-0.4 0.9-0.5 1-0.4z"/><path  d="m39.8 94.1c0.2 0.3 0 0.7-0.4 1-0.4 0.3-0.9 0.4-1.1 0.1-0.2-0.2 0-0.6 0.4-1 0.5-0.3 0.9-0.3 1.1-0.1z"/><path  d="m38.7 66.3c0.2 0.3-0.2 0.9-0.9 1.5-0.6 0.6-1.4 0.9-1.5 0.7-0.2-0.2 0.2-0.9 0.8-1.5 0.7-0.6 1.4-0.9 1.6-0.7z"/><path  d="m38.1 84.9c0.2 0.2-0.1 0.7-0.6 1.1-0.5 0.3-1.1 0.4-1.2 0.1-0.2-0.2 0.1-0.7 0.6-1 0.4-0.4 1-0.5 1.2-0.2z"/><path  d="m37.9 59.3c0.2 0.2 0 0.8-0.6 1.3-0.5 0.4-1.1 0.5-1.3 0.3-0.2-0.2 0.1-0.8 0.7-1.2 0.5-0.4 1-0.6 1.2-0.4z"/><path  d="m37.2 53.9c0.2 0.3-0.2 0.8-0.7 1.3-0.5 0.4-1.1 0.8-1.3 0.5-0.2-0.2 0-0.8 0.6-1.3 0.6-0.5 1.2-0.7 1.4-0.5z"/><path  d="m34.9 69.4c0.2 0.3 0 0.7-0.5 1.1-0.4 0.3-0.9 0.4-1.1 0.1-0.2-0.2 0.1-0.7 0.5-1 0.4-0.3 0.9-0.4 1.1-0.2z"/><path  d="m34.4 62.3c0.2 0.2 0 0.7-0.5 1.1-0.4 0.4-0.9 0.5-1.1 0.3-0.2-0.3 0-0.7 0.5-1.1 0.4-0.4 0.8-0.5 1.1-0.3z"/><path  d="m34.4 87.7c0.2 0.1 0.1 0.8-0.5 1.2q-0.1 0-0.2 0.1-0.1 0-0.2 0.1-0.1 0-0.3 0-0.1 0-0.2 0 0 0-0.1 0-0.1-0.1-0.1-0.1-0.1 0-0.1-0.1-0.1 0-0.1-0.1c-0.1-0.3 0.4-0.6 0.7-0.8 0.4-0.3 0.8-0.5 1.1-0.3z"/><path  d="m33.2 57.2c0.1 0.3-0.2 0.8-0.7 1.2-0.6 0.4-1.2 0.6-1.4 0.4-0.2-0.3 0.2-0.8 0.7-1.2 0.6-0.4 1.2-0.6 1.4-0.4z"/><path  d="m32.5 78.7c0.2 0.2-0.1 0.8-0.7 1.4-0.6 0.6-1.3 0.9-1.5 0.6-0.2-0.2 0.1-0.8 0.7-1.4 0.6-0.5 1.2-0.8 1.5-0.6z"/><path  d="m31.4 72c0.2 0.2 0 0.7-0.5 1.2-0.5 0.4-1.1 0.5-1.3 0.3-0.2-0.3 0.1-0.8 0.6-1.2 0.5-0.4 1-0.5 1.2-0.3z"/><path  d="m30.8 65.3c0.2 0.2 0 0.7-0.4 1.1-0.5 0.4-1 0.6-1.2 0.3-0.2-0.2 0-0.7 0.5-1.1 0.4-0.4 0.9-0.5 1.1-0.3z"/><path  d="m29.7 60c0.2 0.2-0.2 0.9-0.9 1.5-0.7 0.6-1.5 0.9-1.6 0.7-0.2-0.3 0.2-0.9 0.9-1.5 0.7-0.6 1.4-0.9 1.6-0.7z"/><path  d="m28.4 82.6c0.2 0.2 0 0.7-0.6 1.1-0.5 0.3-1 0.4-1.2 0.1-0.2-0.2 0.1-0.7 0.6-1 0.5-0.4 1-0.5 1.2-0.2z"/><path  d="m27.4 68.2c0.2 0.2-0.1 0.7-0.6 1.1-0.5 0.5-1.1 0.6-1.3 0.4-0.2-0.2 0.1-0.8 0.6-1.2 0.5-0.4 1.1-0.6 1.3-0.3z"/><path  d="m27.3 75.1c0.2 0.2-0.2 0.8-0.8 1.3-0.7 0.4-1.3 0.6-1.5 0.3-0.1-0.2 0.2-0.8 0.9-1.2 0.6-0.5 1.2-0.7 1.4-0.4z"/><path  d="m25.5 63.4c0.2 0.3-0.2 0.8-0.8 1.2-0.5 0.5-1.2 0.7-1.3 0.5-0.2-0.2 0.1-0.8 0.7-1.3 0.6-0.4 1.2-0.6 1.4-0.4z"/><path  d="m23.5 71c0.2 0.2-0.4 0.9-1.2 1.5-0.9 0.6-1.7 0.9-1.9 0.7-0.1-0.3 0.4-1 1.2-1.6 0.9-0.5 1.7-0.8 1.9-0.6z"/><path  d="m23 78.1c0.2 0.2 0 0.7-0.6 1.1-0.5 0.3-1 0.3-1.2 0-0.1-0.2 0.2-0.7 0.7-1 0.4-0.3 0.9-0.4 1.1-0.1z"/><path  d="m20 67.6c0.2 0.2-0.2 0.8-0.9 1.3-0.6 0.5-1.3 0.7-1.4 0.5-0.2-0.3 0.2-0.9 0.8-1.3 0.6-0.5 1.3-0.7 1.5-0.5z"/><path  d="m18.3 74.2c0.2 0.2-0.1 0.7-0.7 1.2-0.5 0.4-1.1 0.5-1.3 0.2-0.1-0.3 0.2-0.7 0.8-1.1 0.4-0.4 1-0.5 1.2-0.3z"/><path  d="m15.4 71.2c0.2 0.2-0.2 0.8-0.8 1.4-0.7 0.5-1.3 0.8-1.5 0.6-0.2-0.3 0.1-0.9 0.8-1.4 0.6-0.6 1.3-0.8 1.5-0.6z"/></svg>